<?xml version="1.0" encoding="utf-8"?>
<!-- Generator: Adobe Illustrator 16.0.0, SVG Export Plug-In . SVG Version: 6.00 Build 0)  -->
<!DOCTYPE svg PUBLIC "-//W3C//DTD SVG 1.1//EN" "http://www.w3.org/Graphics/SVG/1.1/DTD/svg11.dtd">
<svg version="1.1" id="Layer_1" xmlns="http://www.w3.org/2000/svg" xmlns:xlink="http://www.w3.org/1999/xlink" x="0px" y="0px"
	 width="261.619px" height="261.617px" viewBox="0 0 261.619 261.617" enable-background="new 0 0 261.619 261.617"
	 xml:space="preserve">
<g>
	<g>
		<path fill="#FBB580" d="M176.681,158.85c0,0,2.871-29.906,3.889-35.336c1.204-6.445,8.712-41.722,15.982-74.418
			c2.762-12.411-8.01-20.019-14.529-5.156c-5.372,12.239-12.852,45.387-18.591,59.389c-3.189,7.768-6.271,4.881-6.459,3.47
			c-2.101-16.322-2.813-51.664-1.72-65.931c1.41-18.396-13.854-21.062-16.966-2.796c-0.768,4.532-0.509,22.686-1.167,37.646
			c-0.54,12.34-0.28,20.621-1.248,26.466c-1.719,10.329-4.01,14.774-8.733,4.805C120,91.922,111.602,54.833,109.735,50.37
			c-9.205-22.011-18.145-13.088-16.072,2.086c1.006,7.381,11.381,42.411,16.458,62.572c0.802,3.177-1.309,6.376-4.717,1.269
			l0.447,13.588l5.701,40.074L176.681,158.85z"/>
		<path fill="#FBB580" d="M156.623,208.914c-0.612-8.116,3.073-16.33,10.139-22.162c4.636-3.832,8.409-9.622,10.465-12.989
			c1.579-7.264,2.166-18.485,0.637-29.036c-1.791-12.396-16.763,1.481-25.847,2.598c-0.697,0.089-1.271-0.053-1.751-0.273
			c-1.878,0.345-3.868,0.741-5.778,1.229c-9.599,2.451-14.897,9.316-14.897,9.316s-6.236-12.069-18.717-32.574
			c-3.818-6.265-12.845-20.231-16.586-26.11c-7.949-12.499-15.071-22.903-18.563-26.016c-6.144-5.478-15.199-0.967-9.062,10.493
			c8.387,15.64,22.382,38.946,26.695,50.82c3.393,9.326,5.022,28.662,8.459,40.056c3.443,11.392,6.879,25.634,7.453,31.938
			c0.569,6.306,0,32.606,0,32.606h39.895h5.249C155.297,229.808,157.094,215.104,156.623,208.914z"/>
		<path fill="#EB8B56" d="M163.756,201.524c1.773-5.314,3.215-8.062,11.808-22.442c0.597-0.994,1.165-3.036,1.663-5.319
			c-2.056,3.367-5.829,8.759-10.465,12.587c-7.065,5.836-10.751,14.517-10.139,22.637c0.471,6.189-1.326,20.822-2.209,29.822h8.662
			C163.076,238.808,162.043,206.678,163.756,201.524z"/>
		<path fill="#EB8B56" d="M179.596,56.017c0,0,1.027,2.032,5.123,3.612c4.088,1.58,6.922,0.323,6.922,0.323
			s-2.266-0.495-6.022-1.967C181.855,56.513,179.596,56.017,179.596,56.017z"/>
		<path fill="#EB8B56" d="M140.69,50.777c0,0,1.575,1.646,5.95,1.972c4.365,0.326,6.718-1.697,6.718-1.697s-2.309,0.181-6.337-0.137
			C142.999,50.594,140.69,50.777,140.69,50.777z"/>
		<path fill="#EB8B56" d="M171.271,86.516c0,0,1.769,1.307,5.885,2.804c4.121,1.497,5.9,0.793,5.9,0.793s-1.238-1.058-5.029-2.453
			C174.237,86.262,171.271,86.516,171.271,86.516z"/>
		<path fill="#EB8B56" d="M140.281,84.672c0,0,2.109,0.609,6.497,0.579c4.377-0.033,5.807-1.315,5.807-1.315
			s-1.535-0.559-5.573-0.548C142.974,83.401,140.281,84.672,140.281,84.672z"/>
		<path fill="#EB8B56" d="M97.845,62.933c0,0,1.979,1.136,6.261,0.213c4.287-0.92,5.973-3.524,5.973-3.524s-2.167,0.825-6.116,1.657
			C100.005,62.107,97.845,62.933,97.845,62.933z"/>
		<path fill="#EB8B56" d="M74.769,92.666c0,0,0.553,0.484,4.11-2.072c3.563-2.556,4.065-4.094,4.065-4.094s-1.651,0.1-4.944,2.439
			S74.769,92.666,74.769,92.666z"/>
		<path fill="#EB8B56" d="M85.183,110.287c0,0,0.552,0.483,4.116-2.074c3.558-2.555,4.06-4.094,4.06-4.094s-1.651,0.1-4.943,2.438
			C85.122,108.897,85.183,110.287,85.183,110.287z"/>
		<path fill="#EB8B56" d="M106.674,93.969c0,0,2.193,0.166,6.481-0.754c4.281-0.922,5.414-2.466,5.414-2.466
			s-1.614-0.235-5.563,0.596C109.056,92.177,106.674,93.969,106.674,93.969z"/>
		<path fill="#EB8B56" d="M125.387,102.924c0,0-0.253,11.122,3.69,12.028c4.133,0.949,5.756-7.627,5.756-7.627s-3.354,5-5.524,2.331
			C127.139,106.989,125.387,102.924,125.387,102.924z"/>
		<path fill="#EB8B56" d="M156.238,100.058c0,0-1.902,10.391,1.994,11.483c4.082,1.145,5.199-8.213,5.199-8.213
			s-2.222,5.544-3.967,3.886C156.973,104.844,156.238,100.058,156.238,100.058z"/>
		<path fill="#EB8B56" d="M103.962,114.025c0,0,2.387,8.732,4.851,7.671c2.469-1.061,1.309-6.668,1.309-6.668
			s-0.568,3.025-1.95,2.874C106.79,117.754,103.962,114.025,103.962,114.025z"/>
		<path fill="#EB8B56" d="M109.978,124.937c0,0,0.725,10.188,9.674,13.283c7.531,2.601,17.619,4.856,17.619,4.856l3.42-6.182
			l-0.409,6.733l8.076,10.386c0,0-3.733,0.647-8.076,6.442c-4.348,5.797-5.354,29.753-5.354,29.753s-8.54-13.593-4.993-23.383
			c3.542-9.79,8.8-13.199,8.8-13.199l-3.187-5.578c0,0-13.559-1.868-21.734-8.929C107.105,133.325,109.978,124.937,109.978,124.937z
			"/>
		<path fill="#EB8B56" d="M112.624,121.784c0,0,28.348,0.548,32.553,1.155c4.204,0.604,28.696,17.204,28.696,17.204
			s-4.3-5.21-11.674-11.287c-9.614-7.914-13.48-8.76-24.271-9.144C127.139,119.332,112.624,121.784,112.624,121.784z"/>
		<path fill="#FDD6BC" d="M111.607,121.884c-0.762,3.544,1.465,6.48,5.924,7.554c4.402,1.063,8.148-0.665,8.148-0.665
			s0.111-5.643-0.846-6.809C119.872,121.737,113.403,121.743,111.607,121.884z"/>
	</g>
	<path fill="none" stroke="#FAB57F" stroke-width="2" stroke-miterlimit="10" d="M259.547,130.808
		c0,71.102-57.637,128.737-128.74,128.737c-71.099,0-128.734-57.636-128.734-128.737C2.072,59.71,59.708,2.072,130.807,2.072
		C201.91,2.072,259.547,59.71,259.547,130.808z"/>
</g>
</svg>
