<?xml version="1.0" encoding="utf-8"?>
<!-- Generator: Adobe Illustrator 16.0.0, SVG Export Plug-In . SVG Version: 6.00 Build 0)  -->
<!DOCTYPE svg PUBLIC "-//W3C//DTD SVG 1.1//EN" "http://www.w3.org/Graphics/SVG/1.1/DTD/svg11.dtd">
<svg version="1.1" id="Layer_1" xmlns="http://www.w3.org/2000/svg" xmlns:xlink="http://www.w3.org/1999/xlink" x="0px" y="0px"
	 width="261.619px" height="261.617px" viewBox="0 0 261.619 261.617" enable-background="new 0 0 261.619 261.617"
	 xml:space="preserve">
<g>
	<g>
		<path fill="#FBB580" d="M171.257,139.024c0,0-12.176-16.131-12.421-29.155c-0.312-16.501-2.659-59.471-2.863-73.791
			c-0.202-14.319-16.279-20.378-16.279,4.322c0,9.659-1.005,26.713-1.265,35.198c-0.41,13.652-2.397,36.78-2.397,36.78l-9.053,2.908
			l1.775,21.639L171.257,139.024z"/>
		<path fill="#FBB580" d="M143.132,197.53c4.516-6.118,12.765-14.183,17.945-21.522c2.757-3.904,8.062-8.313,12.44-11.607
			c2.736-5.074,4.699-9.795,4.116-12.621c-1.152-5.569-12.095-21.595-15.548-27.691c-3.456-6.095-8.637-3.692-14.973,0
			c-6.332,3.695-27.062,9.288-27.062,9.288s3.453,11.002,12.09,10.479c8.64-0.526,12.669-3.791,12.669-3.791l4.03,5.669
			c0,0-8.066,0.821-15.115,2.621c-9.645,2.459-14.971,9.367-14.971,9.367s-21.737-17.326-33.829-17.465
			c0,0,2.463,22.779,5.918,34.229c3.454,11.45,6.91,26.489,7.485,32.827c0.577,6.328,0,33.496,0,33.496h40.1
			c0.456-6,0.884-11.453,1.056-15.277C139.918,215.828,138.62,203.645,143.132,197.53z"/>
		<path fill="#EB8B56" d="M147.113,204.427c1.784-5.34,9.214-10.283,17.852-24.737c2.501-4.183,5.894-9.902,8.553-14.84
			c-4.379,3.289-9.684,7.475-12.44,11.379c-5.181,7.34-13.43,15.295-17.945,21.414c-4.512,6.113-3.214,18.239-3.647,27.945
			c-0.172,3.826-0.6,9.22-1.056,15.22h7.534C145.963,240.808,145.387,209.609,147.113,204.427z"/>
		<path fill="#EB8B56" d="M91.26,148.353c0,0,2.139,8.885,7.979,10.667c6.128,1.871,8.144-2.594,8.144-2.594
			s4.895,4.32,11.516,2.449c5.016-2.993,9.069-7.059,16.583-9.333c7.513-2.279,13.914-2.984,13.914-2.984l-4.585-6.495
			c0,0-7.917,6.291-21.908,1.725C119.179,141.499,94.14,145.315,91.26,148.353z"/>
		<path fill="#FBB580" d="M84.925,130.017c-2.565,4.074,0.258,13.965,1.475,21.762c1.216,7.804,15.657,6.091,17.365,0.76
			c1.512-4.709,0.162-17.408-2.141-22.521C99.321,124.905,88.957,123.616,84.925,130.017z"/>
		<path fill="#FBB580" d="M109.958,115.432c-5.376-1.182-11.501,4.933-10.637,12.604c0.752,6.685,1.727,18.746,7.053,23.064
			c6.145,4.982,10.586,3.9,13.677-3.792C123.142,139.618,121.222,117.913,109.958,115.432z"/>
		<path fill="#FBB580" d="M120.233,104.796c-4.034,1.977-4.678,8.896-5.021,18.588c-0.344,9.691,1.542,21.148,7.142,23.964
			c5.602,2.814,11.888,1.954,14.365-11.391c2.094-11.286,0.444-20.952-1.978-27.33C133.448,105.221,127.933,101.02,120.233,104.796z
			"/>
		<path fill="#EB8B56" d="M99.321,128.036c0,0,0.522,5.807,1.146,9.021c0.627,3.217,3.604,11.297,3.604,11.297s0-4.703-2.375-12.512
			C99.321,128.036,99.321,128.036,99.321,128.036z"/>
		<path fill="#EB8B56" d="M115.429,118.743c0,0,2.68,8.464,3.11,11.056c0.433,2.591,1.789,15.111,1.789,15.111
			s1.738-6.719,0.585-12.639C119.565,125.336,115.429,118.743,115.429,118.743z"/>
		<path fill="#EB8B56" d="M131.331,104.749c0,0,3.41,3.879,4.235,7.777c0.64,3.023,2.096,12.472,2.096,12.472
			s0.018-8.063-1.133-12.813C135.377,107.434,131.331,104.749,131.331,104.749z"/>
		<path fill="#EB8B56" d="M133.631,143.427c0,0-3.719,1.482-9.478-2.62c-2.478-1.761-3.826-6.671-3.826-6.671l0.287-0.917
			l0.298-0.948c0,0,0.216,3.627,4.752,7.792C128.861,142.994,133.631,143.427,133.631,143.427z"/>
		<path fill="#EB8B56" d="M131.335,129.366c5.406-1.375,14.767-4.527,18.06-5.903c2.845-1.186,6.67-2.983,8.13-3.023
			c-2.156-2.127-11.834,2.526-14.938,3.594c-12.808,4.402-22.681,6.771-22.681,6.771l0.421,1.467
			C120.328,132.271,124.836,131.015,131.335,129.366z"/>
		<path fill="#FDD6BC" d="M121.943,131.827c0.166,3.21,2.748,5.203,6.81,5.099c4.011-0.11,6.813-2.449,6.813-2.449
			s-1.205-4.855-2.294-5.631C128.98,129.798,123.447,131.295,121.943,131.827z"/>
		<path fill="#EB8B56" d="M141.778,49.124c0,0,1.62,1.619,6.019,1.853c4.4,0.23,6.717-1.853,6.717-1.853s-2.316,0.231-6.367,0
			C144.093,48.891,141.778,49.124,141.778,49.124z"/>
		<path fill="#EB8B56" d="M141.313,81.312c0,0,2.085,0.739,6.483,0.969c4.4,0.231,5.905-0.969,5.905-0.969s-1.505-0.651-5.556-0.883
			C144.093,80.199,141.313,81.312,141.313,81.312z"/>
	</g>
	<path fill="none" stroke="#FAB57F" stroke-width="2" stroke-miterlimit="10" d="M260.203,130.809
		c0,71.464-57.93,129.393-129.395,129.393c-71.462,0-129.393-57.929-129.393-129.393c0-71.463,57.931-129.395,129.393-129.395
		C202.273,1.415,260.203,59.346,260.203,130.809z"/>
</g>
</svg>
