<?xml version="1.0" encoding="utf-8"?>
<!-- Generator: Adobe Illustrator 16.0.0, SVG Export Plug-In . SVG Version: 6.00 Build 0)  -->
<!DOCTYPE svg PUBLIC "-//W3C//DTD SVG 1.1//EN" "http://www.w3.org/Graphics/SVG/1.1/DTD/svg11.dtd">
<svg version="1.1" id="Layer_1" xmlns="http://www.w3.org/2000/svg" xmlns:xlink="http://www.w3.org/1999/xlink" x="0px" y="0px"
	 width="261.619px" height="261.617px" viewBox="0 0 261.619 261.617" enable-background="new 0 0 261.619 261.617"
	 xml:space="preserve">
<g>
	<g>
		<path fill="#FBB580" d="M171.389,137.582c0,0-1.334-11.164-1.576-24.23c-0.313-16.553,4.072-58.206,6.734-72.325
			c3.541-18.774-11.846-22.765-15.261-4.398c-0.847,4.56-5.229,21.746-7.272,32.993c-2.226,12.253-2.231,21.211-4.561,29.441
			c-2.871,10.156-11.745,12.811-16.355,2.688c-6.969-15.298-15.904-55.265-17.718-59.794c-8.949-22.333-18.092-13.473-16.242,1.858
			c1.039,8.632,12.373,57.338,16.242,73.42l-5.14,4.827l5.14,40.495L171.389,137.582z"/>
		<path fill="#FBB580" d="M143.173,196.273c4.526-6.137,12.802-14.227,18.002-21.592c2.763-3.916,8.089-8.342,12.479-11.641
			c2.743-5.092,4.713-9.83,4.128-12.662c-1.153-5.59-12.131-21.665-15.596-27.782c-3.465-6.114-8.665-3.704-15.019,0
			c-6.356,3.707-27.152,9.317-27.152,9.317s3.465,11.039,12.131,10.51c8.665-0.523,12.709-3.803,12.709-3.803l4.045,5.691
			c0,0-8.095,0.824-15.164,2.627c-9.677,2.471-15.019,9.4-15.019,9.4s-21.807-17.381-33.938-17.52c0,0,2.471,22.85,5.936,34.338
			c3.468,11.486,6.933,25.635,7.51,31.986c0.576,6.35,0,32.664,0,32.664h40.229c0.457-6,0.886-10.549,1.059-14.381
			C139.944,213.689,138.646,202.41,143.173,196.273z"/>
		<path fill="#EB8B56" d="M147.167,202.253c1.785-5.354,9.242-9.851,17.907-24.347c2.507-4.197,5.91-9.694,8.579-14.649
			c-4.39,3.297-9.716,7.615-12.479,11.531c-5.2,7.361-13.476,15.4-18.002,21.539c-4.526,6.135-3.229,17.386-3.66,27.122
			c-0.173,3.838-0.602,8.358-1.059,14.358h7.557C146.011,237.808,145.432,207.457,147.167,202.253z"/>
		<path fill="#EB8B56" d="M91.133,146.939c0,0,2.145,8.916,8.005,10.703c6.147,1.875,8.17-2.602,8.17-2.602
			s4.911,4.332,11.554,2.455c5.03-3,9.098-7.082,16.635-9.365c7.534-2.287,13.957-2.994,13.957-2.994l-4.599-6.516
			c0,0-13.891,8.313-22.517-3.982C118.6,134.349,94.021,143.894,91.133,146.939z"/>
		<path fill="#FBB580" d="M84.779,128.546c-2.573,4.086,0.259,14.006,1.479,21.833c1.22,7.824,15.706,6.105,17.42,0.764
			c1.518-4.727,0.161-17.465-2.148-22.596C99.219,123.413,88.821,122.123,84.779,128.546z"/>
		<path fill="#FBB580" d="M109.89,113.915c-5.393-1.187-11.537,4.946-10.671,12.64c0.755,6.707,1.735,18.81,7.078,23.142
			c6.164,4.998,10.617,3.91,13.718-3.807C123.117,138.179,121.19,116.402,109.89,113.915z"/>
		<path fill="#EB8B56" d="M99.219,126.555c0,0,0.523,5.828,1.15,9.052c0.627,3.229,3.615,11.332,3.615,11.332s0-4.717-2.381-12.549
			C99.219,126.555,99.219,126.555,99.219,126.555z"/>
		<path fill="#EB8B56" d="M115.38,117.234c0,0,2.688,8.49,3.119,11.089c0.435,2.599,2.02,16.034,2.02,16.034
			s2.368-2.096,0.365-13.551C119.661,123.825,115.38,117.234,115.38,117.234z"/>
		<path fill="#EB8B56" d="M133.638,142c0,0-3.729,1.488-9.506-2.629c-2.487-1.77-3.839-6.691-3.839-6.691l0.29-0.918l0.301-0.955
			c0,0,0.215,3.637,4.763,7.815C128.855,141.562,133.638,142,133.638,142z"/>
		<path fill="#EB8B56" d="M131.337,127.892c5.424-1.379,14.816-4.546,18.116-5.922c2.855-1.189,6.691-2.997,8.156-3.033
			c-2.164-2.134-11.869,2.535-14.982,3.604c-12.853,4.415-22.754,6.794-22.754,6.794l0.42,1.471
			C120.293,130.806,124.816,129.546,131.337,127.892z"/>
		<path fill="#FDD6BC" d="M121.914,130.362c0.167,3.217,2.758,5.219,6.833,5.112c4.021-0.111,6.835-2.457,6.835-2.457
			s-1.209-4.869-2.304-5.646C128.976,128.323,123.421,129.828,121.914,130.362z"/>
		<path fill="#EB8B56" d="M131.9,98.935c0,0,0,12.131,6.841,14.629c5.495,2.012,9.431-1.423,11.439-7.027
			c1.54-4.298,0.847-15.035,0.847-15.035s-0.749,12.871-8.396,15.152C134.983,108.935,131.9,98.935,131.9,98.935z"/>
		<path fill="#EB8B56" d="M161.029,48.341c0,0,1.354,1.857,5.68,2.769c4.326,0.911,6.941-0.797,6.941-0.797
			s-2.329-0.128-6.309-0.985C163.361,48.469,161.029,48.341,161.029,48.341z"/>
		<path fill="#EB8B56" d="M155.584,80.175c0,0,1.95,1.053,6.275,1.964c4.326,0.911,6.003-0.045,6.003-0.045s-1.39-0.88-5.373-1.737
			C158.512,79.498,155.584,80.175,155.584,80.175z"/>
		<path fill="#EB8B56" d="M102.996,54.438c0,0,1.978,1.176,6.312,0.313s6.072-3.462,6.072-3.462s-2.195,0.799-6.192,1.576
			S102.996,54.438,102.996,54.438z"/>
		<path fill="#EB8B56" d="M110.344,85.849c0,0,2.209,0.201,6.543-0.663c4.334-0.86,5.501-2.4,5.501-2.4s-1.624-0.262-5.621,0.516
			C112.77,84.077,110.344,85.849,110.344,85.849z"/>
	</g>
	<circle fill="none" stroke="#FAB57F" stroke-width="2" stroke-miterlimit="10" cx="130.81" cy="130.809" r="129.81"/>
</g>
</svg>
