<?xml version="1.0" encoding="utf-8"?>
<!-- Generator: Adobe Illustrator 16.0.0, SVG Export Plug-In . SVG Version: 6.00 Build 0)  -->
<!DOCTYPE svg PUBLIC "-//W3C//DTD SVG 1.1//EN" "http://www.w3.org/Graphics/SVG/1.1/DTD/svg11.dtd">
<svg version="1.1" id="Layer_1" xmlns="http://www.w3.org/2000/svg" xmlns:xlink="http://www.w3.org/1999/xlink" x="0px" y="0px"
	 width="261.619px" height="261.617px" viewBox="0 0 261.619 261.617" enable-background="new 0 0 261.619 261.617"
	 xml:space="preserve">
<g>
	<g>
		<path fill="#FBB580" d="M167.4,157.792c0,0,1.576-30.169,2.356-35.673c0.925-6.525,6.911-42.3,12.785-75.471
			c2.228-12.591-8.935-19.764-14.83-4.54c-4.856,12.532-10.912,46.165-16.063,60.487c-2.858,7.945-6.09,5.181-6.334,3.769
			c-2.834-16.307-5.101-51.781-4.635-66.167c0.605-18.544-14.846-20.55-17.166-2.064c-0.574,4.593,0.482,22.82,0.482,37.88
			c0,12.419,0.625,20.73-0.091,26.646c-1.268,10.452-3.376,15.019-8.561,5.212c-7.839-14.821-17.903-51.718-19.977-56.121
			C85.146,30.04,76.564,39.397,79.307,54.552c1.543,8.531,15.69,56.362,20.486,72.147l-4.831,5.106l7.495,40.021L167.4,157.792z"/>
		<path fill="#FBB580" d="M146.705,206.701c-0.617-8.166,3.089-15.94,10.194-21.813c4.656-3.846,8.454-9.438,10.524-12.819
			c1.591-7.308,2.432-19.988,0.898-30.604c-1.803-12.468-17.123,3.075-26.252,4.192c-0.697,0.089-1.275-0.025-1.762-0.246
			c-1.889,0.351-3.886,0.762-5.812,1.249c-9.65,2.469-14.982,9.381-14.982,9.381s-22.206-24.717-34.304-24.853
			c0,0,2.922,30.167,6.377,41.625c3.457,11.456,6.913,24.822,7.489,31.16c0.577,6.341,0,31.837,0,31.837h40.127h5.276
			C145.37,230.808,147.177,212.925,146.705,206.701z"/>
		<path fill="#EB8B56" d="M153.881,199.267c1.782-5.346,3.23-7.629,11.874-22.088c0.596-1.005,1.168-2.817,1.669-5.111
			c-2.07,3.382-5.868,8.928-10.524,12.777c-7.105,5.869-10.812,13.698-10.194,21.867c0.472,6.223-1.335,24.096-2.225,29.096h8.714
			C153.194,235.808,152.152,204.451,153.881,199.267z"/>
		<path fill="#EB8B56" d="M92.004,146.662c0,0,1.625,12.28,6.837,15.47c8.832,5.4,13.284-7.573,13.284-7.573
			s5.851,9.091,14.874,4.362c5.018-2.991,1.734-8.79,9.254-11.069c7.514-2.284,13.922-2.988,13.922-2.988l-4.588-6.501
			c0,0-13.855,8.296-22.459-3.968C119.401,134.105,94.885,143.624,92.004,146.662z"/>
		<path fill="#FBB580" d="M85.667,128.317c-1.703,4.504,1.415,15.768,6.337,24.13c4.009,6.807,11.596,8.479,14.842,3.918
			c2.786-3.918-2.167-22.932-4.471-28.048C100.071,123.197,91.096,113.952,85.667,128.317z"/>
		<path fill="#EB8B56" d="M165.808,54.346c0,0,1.125,1.997,5.3,3.406c4.179,1.405,6.973,0.019,6.973,0.019s-2.295-0.396-6.139-1.711
			C168.1,54.747,165.808,54.346,165.808,54.346z"/>
		<path fill="#EB8B56" d="M126.484,50.793c0,0,1.658,1.586,6.063,1.722c4.406,0.134,6.678-2.001,6.678-2.001s-2.311,0.28-6.37,0.139
			C128.794,50.511,126.484,50.793,126.484,50.793z"/>
		<path fill="#EB8B56" d="M158.784,85.359c0,0,1.833,1.233,6.039,2.556c4.202,1.325,5.962,0.535,5.962,0.535
			s-1.295-1.005-5.165-2.241C161.753,84.972,158.784,85.359,158.784,85.359z"/>
		<path fill="#EB8B56" d="M127.564,84.87c0,0,2.151,0.517,6.551,0.295c4.405-0.227,5.775-1.576,5.775-1.576
			s-1.563-0.494-5.618-0.306C130.213,83.473,127.564,84.87,127.564,84.87z"/>
		<path fill="#EB8B56" d="M83.774,64.903c0,0,2.037,1.053,6.301-0.061c4.266-1.114,5.841-3.804,5.841-3.804s-2.14,0.923-6.072,1.934
			C85.911,63.98,83.774,64.903,83.774,64.903z"/>
		<path fill="#EB8B56" d="M92.937,95.747c0,0,2.21,0.068,6.476-1.046c4.264-1.113,5.336-2.717,5.336-2.717s-1.634-0.164-5.566,0.846
			C95.246,93.837,92.937,95.747,92.937,95.747z"/>
		<path fill="#EB8B56" d="M121.089,154.864c0,0-7.131,8.579-0.877,16.963c4.479,6.002,12.902-19.436,12.902-19.436L121.089,154.864z
			"/>
		<path fill="#FBB580" d="M96.721,129.416c-2.534,6.912,1.587,13.879,11.677,15.874c4.778,0.94,9.273,0.079,13.901,1.233
			c4.56,1.14,6.551,3.907,6.551,3.907s-9.021,16.175-11.208,24.209c-0.873,3.21,3.448,17.451,3.448,17.451
			s27.004,1.391,35.347-11.117c8.343-12.513,8.343-28.526,8.343-28.526s-1.663-9.101-10.897-15.036
			c-7.657-4.923-18.262-12.183-27.53-13.152c-3.953-0.411-9.922-0.277-15.807-0.869C104.067,122.737,98.533,124.458,96.721,129.416z
			"/>
		<path fill="#FDD6BC" d="M110.349,140.34c-4.641,0.15-12.518-2.941-11.662-9.096c0.726-5.228,5.302-5.364,8.392-4.931
			c2.513,0.355,5.046,0.917,5.046,0.917L110.349,140.34z"/>
		<path fill="#EB8B56" d="M99.936,124.583c0,0,10.934-0.43,15.876-0.146c3.617,0.207,15.206-0.548,23.354,4.107
			c8.144,4.659,20.068,13.45,20.068,13.45s0.156-3.777-3.106-5.822c-4.566-2.856-17.901-10.607-25.317-12.354
			c-3.837-0.905-9.935-0.883-16.852-0.561C107.517,123.556,102.498,123.194,99.936,124.583z"/>
		<path fill="#EB8B56" d="M97.586,126.159c0,0-4.649,4.187-1.906,9.485c4.08,7.88,11.993,9.486,11.993,9.486
			s-5.158,0.127-9.052-3.136C93.98,138.106,90.942,129.581,97.586,126.159z"/>
		<path fill="#EB8B56" d="M113.406,103.864c0,0,0.236,11.185,4.235,11.921c4.195,0.775,5.445-7.915,5.445-7.915
			s-3.146,5.17-5.445,2.587C115.345,107.87,113.406,103.864,113.406,103.864z"/>
		<path fill="#EB8B56" d="M144.278,99.624c0,0-1.453,10.527,2.51,11.453c4.149,0.97,4.861-8.481,4.861-8.481
			s-1.991,5.666-3.817,4.077C145.227,104.4,144.278,99.624,144.278,99.624z"/>
	</g>
	<path fill="none" stroke="#FAB57F" stroke-width="2" stroke-miterlimit="10" d="M260.28,130.808
		c0,71.506-57.962,129.47-129.471,129.47c-71.506,0-129.471-57.964-129.471-129.47c0-71.503,57.965-129.47,129.471-129.47
		C202.318,1.338,260.28,59.305,260.28,130.808z"/>
</g>
</svg>
