<?xml version="1.0" encoding="utf-8"?>
<!-- Generator: Adobe Illustrator 16.0.0, SVG Export Plug-In . SVG Version: 6.00 Build 0)  -->
<!DOCTYPE svg PUBLIC "-//W3C//DTD SVG 1.1//EN" "http://www.w3.org/Graphics/SVG/1.1/DTD/svg11.dtd">
<svg version="1.1" id="Layer_1" xmlns="http://www.w3.org/2000/svg" xmlns:xlink="http://www.w3.org/1999/xlink" x="0px" y="0px"
	 width="261.619px" height="261.617px" viewBox="0 0 261.619 261.617" enable-background="new 0 0 261.619 261.617"
	 xml:space="preserve">
<g>
	<g>
		<path fill="#FBB580" d="M156.349,157.318c0,0-0.035-31.778,1.694-37.021c2.428-7.36,10.892-39.939,18.158-72.592
			c2.76-12.395-8.005-19.993-14.517-5.15c-5.357,12.224-12.828,45.327-18.566,59.312c-3.179,7.758-6.263,4.875-6.442,3.465
			c-2.104-16.303-2.811-51.596-1.719-65.845c1.401-18.374-13.838-21.033-16.94-2.792c-0.774,4.527-0.517,22.655-1.173,37.597
			c-0.535,12.324-0.278,20.594-1.247,26.432c-1.711,10.315-4.001,14.753-8.718,4.797C99.744,90.475,91.36,53.433,89.495,48.975
			C80.3,26.995,71.378,35.906,73.441,51.06c1.004,7.372,11.366,42.356,16.437,62.49c0.803,3.17-1.302,6.367-4.709,1.267l0.444,13.57
			l5.7,40.026L156.349,157.318z"/>
		<path fill="#FBB580" d="M199.149,113.55c-12.423,2.872-29.113,26.911-33.872,30.91c-4.861,4.078-8.771,2.45-8.713-4.414
			c0.11-12.51-15.774,4.58-24.846,5.689c-0.692,0.088-1.264-0.022-1.744-0.242c-1.882,0.348-3.862,0.762-5.776,1.252
			c-9.584,2.443-14.876,9.308-14.876,9.308s-6.224-12.056-18.694-32.527c-3.813-6.256-12.822-20.206-16.558-26.074
			c-7.946-12.483-15.058-22.871-18.54-25.98c-6.139-5.473-15.185-0.965-9.046,10.48c8.372,15.619,22.343,38.892,26.652,50.75
			c3.388,9.314,5.022,28.631,8.453,40.009c3.433,11.377,6.864,24.917,7.438,31.212c0.571,6.291,0,31.885,0,31.885h39.845h3.264
			c0.13-11,0.757-27.569,3.322-31.146c3.973-5.522,19.35-13.748,21.35-15.37v-0.045c0-2.411,7.055-5.159,11.956-8.415
			c6.019-3.982,12.577-8.689,15.649-19.797c3.893-14.058,14.495-29.917,32.681-40.732
			C216.703,117.385,214.853,109.917,199.149,113.55z"/>
		<path fill="#EB8B56" d="M135.46,204.663c-2.565,3.576-3.192,20.146-3.322,31.146h1.98h12.112c0,0,0.574-25.076,2.291-30.229
			c1.146-3.438,3.288-11.847,8.288-16.281v0.044C154.81,190.963,139.433,199.14,135.46,204.663z"/>
		<path fill="#EB8B56" d="M159.263,54.616c0,0,1.032,2.031,5.115,3.609c4.082,1.578,6.913,0.322,6.913,0.322
			s-2.257-0.496-6.014-1.964C161.522,55.113,159.263,54.616,159.263,54.616z"/>
		<path fill="#EB8B56" d="M120.407,49.383c0,0,1.575,1.645,5.943,1.97c4.363,0.326,6.708-1.694,6.708-1.694s-2.306,0.18-6.325-0.138
			S120.407,49.383,120.407,49.383z"/>
		<path fill="#EB8B56" d="M150.947,85.077c0,0,1.766,1.305,5.883,2.799c4.116,1.496,5.892,0.792,5.892,0.792
			s-1.241-1.057-5.026-2.45C153.91,84.823,150.947,85.077,150.947,85.077z"/>
		<path fill="#EB8B56" d="M119.999,83.234c0,0,2.11,0.609,6.488,0.576c4.379-0.031,5.799-1.311,5.799-1.311
			s-1.533-0.558-5.564-0.547C122.686,81.962,119.999,83.234,119.999,83.234z"/>
		<path fill="#EB8B56" d="M77.618,61.524c0,0,1.975,1.134,6.256,0.212c4.277-0.917,5.959-3.52,5.959-3.52s-2.163,0.825-6.108,1.653
			C79.781,60.7,77.618,61.524,77.618,61.524z"/>
		<path fill="#EB8B56" d="M54.571,91.218c0,0,0.552,0.482,4.11-2.07c3.554-2.552,4.059-4.088,4.059-4.088s-1.652,0.099-4.941,2.435
			C54.513,89.833,54.571,91.218,54.571,91.218z"/>
		<path fill="#EB8B56" d="M64.972,108.815c0,0,0.551,0.483,4.111-2.072c3.559-2.552,4.055-4.088,4.055-4.088
			s-1.649,0.099-4.935,2.436C64.914,107.431,64.972,108.815,64.972,108.815z"/>
		<path fill="#EB8B56" d="M86.438,92.52c0,0,2.188,0.166,6.469-0.753c4.276-0.922,5.413-2.463,5.413-2.463s-1.611-0.234-5.561,0.595
			C88.813,90.729,86.438,92.52,86.438,92.52z"/>
		<path fill="#EB8B56" d="M105.129,101.461c0,0-0.253,11.11,3.683,12.018c4.125,0.946,5.747-7.62,5.747-7.62
			s-3.35,4.993-5.515,2.328S105.129,101.461,105.129,101.461z"/>
		<path fill="#EB8B56" d="M135.937,98.6c0,0-1.897,10.378,1.992,11.469c4.075,1.142,5.189-8.202,5.189-8.202
			s-2.218,5.537-3.959,3.879C136.668,103.379,135.937,98.6,135.937,98.6z"/>
		<path fill="#EB8B56" d="M83.726,112.546c0,0,2.387,8.723,4.851,7.664c2.463-1.062,1.302-6.659,1.302-6.659
			s-0.566,3.021-1.944,2.872C86.551,116.272,83.726,112.546,83.726,112.546z"/>
		<path fill="#EB8B56" d="M90.151,197.458c0,0,4.539,5.522,10.526,5.986c5.98,0.458,9.165,0.916,9.165,0.916
			s-6.461,3.547-12.388,0.767C91.523,202.347,90.151,197.458,90.151,197.458z"/>
		<path fill="#EB8B56" d="M85.183,142.259c0,0,16.249-4.701,29.376-8.845c13.121-4.143,26.842-13.996,26.842-13.996
			s-3.453,5.561-15.262,11.675c-10.091,5.229-15.945,7.536-26.142,10.295C90.888,143.853,85.183,142.259,85.183,142.259z"/>
		<path fill="#EB8B56" d="M144.486,131.093c0,0-16.26,6.35-25.718,12.357c-12.086,7.688-20.449,21.718-20.449,21.718
			s14.887-14.527,22.446-19.327C128.331,141.035,144.486,131.093,144.486,131.093z"/>
		<path fill="#FDD6BC" d="M205.895,128.351l-1.376-1.992c0,0,9.661-7.673,12.58-6.062
			C214.798,122.218,205.895,128.351,205.895,128.351z"/>
	</g>
	<circle fill="none" stroke="#FAB57F" stroke-width="2" stroke-miterlimit="10" cx="130.81" cy="130.809" r="128.57"/>
</g>
</svg>
