<?xml version="1.0" encoding="utf-8"?>
<!-- Generator: Adobe Illustrator 16.0.0, SVG Export Plug-In . SVG Version: 6.00 Build 0)  -->
<!DOCTYPE svg PUBLIC "-//W3C//DTD SVG 1.1//EN" "http://www.w3.org/Graphics/SVG/1.1/DTD/svg11.dtd">
<svg version="1.1" id="Layer_1" xmlns="http://www.w3.org/2000/svg" xmlns:xlink="http://www.w3.org/1999/xlink" x="0px" y="0px"
	 width="261.619px" height="261.617px" viewBox="0 0 261.619 261.617" enable-background="new 0 0 261.619 261.617"
	 xml:space="preserve">
<g>
	<g>
		<path fill="#FBB580" d="M106.392,56.465c-5.618,1.719-9.56,5.502-9.851,13.326c-0.266,7.163,5.796,12.648,9.742,23.127
			c1.304,3.477,5.649,22.596,5.649,22.596s-25.529,1.165-35.158,1.372c-9.626,0.205-16.027,2.981-19.875,7.269
			c-3.847,4.281,0,11.156,0,11.156s-6.321,4.914-6.8,10.074c-0.479,5.152,4.354,8.303,4.354,8.303s-4.456,4.418-3.1,9.576
			c1.361,5.152,7.832,6.531,7.832,6.531s-4.622,3.727-2.97,9.084c1.652,5.354,9.188,8.475,28.784,11.453
			c19.598,2.979,35.778-2.463,55.664-3.195c7.802-0.293,64.697,18.02,64.697,18.02l6.188-58.111c0,0-49.918-11.408-60.499-22.837
			C136.567,108.563,109.685,63.683,106.392,56.465z"/>
		<path fill="#EB8B56" d="M109.262,132.679c-0.866-5.046-5.067-7.296-9.413-8.904c-5.14-1.904-12.532-2.898-18.034-2.392
			c4.96,1.032,11.364,1.719,15.931,3.985c4.362,2.167,10.213,5.438,7.462,10.14c-0.659,1.123-1.971,2.844-3.377,3.1
			c-3.717,0.686-15.775-0.92-17.619-1.234c-5.939-1.014-12.753-1.865-18.881-1.877c6.996,2.508,15.372,2.646,22.684,4.123
			c3.313,0.67,6.765,1.279,9.997,2.293c1.738,0.541,6.101,2.352,6.978,5.547c1.005,3.037-2.028,7.455-6.662,7.168
			c-7.981-0.498-28.211-2.176-32.93-1.008c5.757,1.25,10.45,1.771,16.302,2.381c3.089,0.32,6.188,0.602,9.271,0.945
			c1.987,0.223,7.891,0.178,12.062,3.184c3.62,2.607,2.392,8.186-2.602,9.486c-4.948,1.291-26.728-0.725-32.813,0.582
			c5.873,0.443,11.74,0.703,17.569,1.494c3.092,0.416,6.261,1.059,9.089,2.236c3.548,1.484,3.88,4.141,3.255,5.248
			c-0.711,1.262-1.957,3.549-12.759,4.627c-4.694,0.471-11.138,0.229-14.229,1.318c7.415,1.5,15.292,0.676,22.726-0.416
			c2.165-0.314,11.796-3.281,7.656-11.258c7.168-2.68,10.946-12.162,2.789-17.543c6.709-2.285,7.039-12.072,2.939-14.895
			C108.246,139.958,109.923,136.533,109.262,132.679z"/>
		<path fill="#EB8B56" d="M111.506,122.688c0,0,2.182,11.216,5.384,18.562c3.521,8.08,13.916,15.986,13.916,15.986
			s-13.604-4.252-17.127-12.389C110.105,136.593,110.366,129.64,111.506,122.688z"/>
		<path fill="#FDD6BC" d="M95.863,127.467l-2.173,9.232c0,0,7.857,2.27,9.125-2.496C104.089,129.435,95.863,127.467,95.863,127.467z
			"/>
		<path fill="#FDD6BC" d="M94.695,143.275l-1.592,9.35c0,0,7.979,1.775,8.954-3.063C103.026,144.724,94.695,143.275,94.695,143.275z
			"/>
		<path fill="#FDD6BC" d="M95.263,159.615l-1.456,8.547c0,0,7.979,1.771,8.948-3.066C103.729,160.257,95.263,159.615,95.263,159.615
			z"/>
		<path fill="#FDD6BC" d="M89.146,174.207l-0.924,7.451c0,0,6.972,1.217,7.619-3.006C96.494,174.433,89.146,174.207,89.146,174.207z
			"/>
		<path fill="#EB8B56" d="M147.071,167.492c0,0-0.869,5.963-1.307,8.863c-0.432,2.906-2.607,7.926-2.607,7.926
			s4.567-3.227,4.999-7.926C148.591,171.654,147.071,167.492,147.071,167.492z"/>
		<path fill="#FDD6BC" d="M106.469,56.465c-3.177,0.874-4.61,3.902-3.604,7.951c0.991,3.997,4.732,6.887,4.732,6.887
			s4.515-2.272,5.049-3.535C110.748,63.675,107.338,57.854,106.469,56.465z"/>
	</g>
	<path fill="none" stroke="#FAB57F" stroke-width="2" stroke-miterlimit="10" d="M259.794,130.811
		c0,71.234-57.748,128.978-128.986,128.978c-71.234,0-128.982-57.744-128.982-128.978c0-71.237,57.748-128.983,128.982-128.983
		C202.046,1.828,259.794,59.573,259.794,130.811z"/>
</g>
</svg>
