<svg height="512pt" viewBox="0 0 512 512.00489" width="512pt" xmlns="http://www.w3.org/2000/svg"><path d="m503.378906 256c.09375 42.847656-11.027344 84.976562-32.253906 122.199219-2.902344 5.117187-5.972656 10.152343-9.300781 15.101562-3.589844 5.488281-7.464844 10.789063-11.605469 15.871094-3.753906 4.867187-7.851562 9.644531-12.03125 14.253906-5.035156 5.460938-10.328125 10.664063-15.789062 15.699219-5.035157 4.609375-10.324219 9.046875-15.785157 13.140625-3.925781 3.160156-8.023437 6.058594-12.117187 8.875-6.402344 4.265625-12.886719 8.277344-19.628906 12.03125h-.167969c-11.375 6.207031-23.214844 11.511719-35.414063 15.875-9 3.277344-18.207031 5.957031-27.5625 8.019531-9.859375 2.339844-19.867187 3.992188-29.953125 4.949219-.617187.128906-1.246093.214844-1.875.257813-7.9375.765624-15.875 1.191406-23.980469 1.191406-4.4375 0-8.789062-.082032-13.140624-.339844-131.394532-6.960938-234.355469-115.546875-234.324219-247.125 0-24.964844 3.738281-49.785156 11.089843-73.644531 3.292969-10.398438 7.257813-20.574219 11.863282-30.460938 3.976562-8.570312 8.421875-16.917969 13.3125-25.003906l.171875-.257813c7.15625-11.675781 15.292969-22.722656 24.316406-33.023437 4.960937-5.824219 10.261719-11.351563 15.875-16.554687l.167969-.167969c7.824218-7.621094 16.210937-14.636719 25.089844-20.992188 5.460937-4.011719 11.09375-7.765625 16.808593-11.351562 5.976563-3.582031 12.117188-6.910157 18.347657-9.984375 5.523437-2.878906 11.191406-5.472656 16.980468-7.765625h.085938c5.71875-2.386719 11.519531-4.519531 17.496094-6.398438 5.542968-1.792969 11.261718-3.414062 16.980468-4.777343 15.007813-3.648438 30.316406-5.902344 45.738282-6.742188h.253906c4.269531-.257812 8.535156-.339844 12.886718-.339844 136.671876 0 247.464844 110.792969 247.464844 247.464844zm0 0" fill="#c52828"/><path d="m477.78125 256c.089844 42.847656-11.03125 84.976562-32.257812 122.199219-2.898438 5.117187-5.972657 10.152343-9.300782 15.101562-3.589844 5.488281-7.460937 10.789063-11.605468 15.871094-.511719.597656-.9375 1.28125-1.535157 1.878906-3.242187 4.179688-6.828125 8.363281-10.496093 12.375-5.035157 5.460938-10.324219 10.664063-15.785157 15.699219-5.035156 4.609375-10.328125 9.046875-15.789062 13.140625-3.925781 3.160156-8.019531 6.058594-12.117188 8.875l-4.351562 2.816406c-4.949219 3.242188-10.070313 6.316407-15.273438 9.214844h-.171875c-11.375 6.207031-23.214844 11.511719-35.414062 15.875-9 3.277344-18.207032 5.957031-27.5625 8.019531-9.855469 2.339844-19.863282 3.992188-29.949219 4.949219-.621094.128906-1.25.214844-1.878906.257813-3.839844.339843-7.679688.679687-11.519531.851562-131.394532-6.960938-234.355469-115.546875-234.324219-247.125 0-24.964844 3.738281-49.785156 11.089843-73.644531 3.292969-10.398438 7.257813-20.574219 11.863282-30.460938 3.976562-8.570312 8.421875-16.917969 13.3125-25.003906l.171875-.257813c6.953125-11.398437 14.863281-22.1875 23.636719-32.253906.253906-.257812.425781-.511718.679687-.769531 4.960937-5.824219 10.261719-11.351563 15.875-16.554687l.167969-.167969c7.824218-7.621094 16.210937-14.636719 25.089844-20.992188 5.460937-4.011719 11.09375-7.765625 16.808593-11.351562 5.976563-3.582031 12.117188-6.910157 18.347657-9.984375 5.351562-2.796875 10.847656-5.300782 16.46875-7.507813l.511718-.257812h.085938c5.71875-2.386719 11.519531-4.519531 17.496094-6.398438 5.542968-1.792969 11.261718-3.414062 16.980468-4.777343 15.007813-3.648438 30.316406-5.902344 45.738282-6.742188h.253906c131.574218 6.71875 234.796875 115.378906 234.753906 247.125zm0 0" fill="#f44335"/><path d="m428.976562 147.824219c-19.222656-23.851563-46.703124-33.597657-61.382812-21.769531-14.679688 11.828124-10.992188 40.753906 8.226562 64.605468 19.222657 23.851563 46.707032 33.597656 61.382813 21.769532 14.679687-11.832032 10.996094-40.753907-8.226563-64.605469zm0 0" fill="#c52828"/><path d="m316.992188 66.871094c-13.847657-2.867188-26.929688 3.785156-29.222657 14.863281-2.292969 11.074219 7.070313 22.378906 20.914063 25.246094 13.847656 2.867187 26.929687-3.789063 29.222656-14.863281 2.292969-11.078126-7.070312-22.378907-20.914062-25.246094zm0 0" fill="#c52828"/><path d="m435.113281 415.777344c-3.351562 4.265625-7.054687 8.464844-10.855469 12.527344-5.203124 5.519531-10.671874 10.796874-16.3125 15.890624-5.207031 4.667969-10.675781 9.15625-16.324218 13.300782-4.0625 3.203125-8.296875 6.136718-12.527344 8.988281l-4.507812 2.847656c-174.0625-29.710937-306.40625-178.34375-306.40625-357.367187 0-5.613282.085937-11.230469.351562-16.757813.265625-.257812.441406-.519531.707031-.777343 5.136719-5.910157 10.613281-11.511719 16.410157-16.777344l.179687-.167969c8.097656-7.722656 16.769531-14.828125 25.933594-21.25 5.648437-4.0625 11.476562-7.867187 17.382812-11.492187 6.175781-3.628907 12.523438-7 18.96875-10.105469 5.550781-2.835938 11.246094-5.375 17.066407-7.601563-5.832032 23.539063-8.777344 47.699219-8.773438 71.953125 0 155.511719 119.457031 285.515625 278.707031 316.789063zm0 0" fill="#ffecb3"/><path d="m255.914062 0c-23.308593.00390625-46.507812 3.207031-68.949218 9.515625-.378906.078125-.753906.183594-1.117188.316406-24.777344 7.066407-48.339844 17.847657-69.878906 31.980469-.425781.222656-.828125.480469-1.203125.777344-14.644531 9.703125-28.25 20.878906-40.613281 33.355468-.53125.433594-1.007813.933594-1.414063 1.484376-15.183593 15.582031-28.332031 33.023437-39.132812 51.910156-.257813.375-.484375.765625-.675781 1.175781-51.628907 91.683594-41.878907 205.625 24.578124 287.199219 66.457032 81.578125 176.070313 114.160156 276.296876 82.132812.265624-.085937.523437-.160156.769531-.261718 19.59375-6.34375 38.34375-15.035157 55.84375-25.890626 1.03125-.414062 1.976562-1.019531 2.78125-1.785156 9.644531-6.148437 18.871093-12.933594 27.613281-20.308594.460938-.316406.882812-.683593 1.261719-1.09375 10.195312-8.722656 19.699219-18.226562 28.417969-28.421874.398437-.378907.761718-.796876 1.074218-1.246094 8-9.464844 15.304688-19.496094 21.855469-30.011719.414063-.507813.769531-1.058594 1.054687-1.648437 48.214844-79.007813 50.003907-177.890626 4.679688-258.589844-45.320312-80.699219-130.6875-130.636719-223.242188-130.589844zm-238.933593 256c-.019531-33.394531 7.007812-66.417969 20.617187-96.914062.664063.242187 1.359375.394531 2.066406.453124h.160157c4.652343 0 8.445312-3.722656 8.535156-8.371093.082031-4.847657.339844-9.667969.671875-14.507813 6.363281-11.003906 13.59375-21.484375 21.625-31.339844 1.449219 1.714844 3.515625 2.789063 5.75 2.992188h.769531c4.417969-.003906 8.101563-3.378906 8.488281-7.78125.402344-4.574219.964844-9.097656 1.554688-13.652344 6.769531-6.722656 13.929688-13.035156 21.445312-18.910156-22.265624 183.417969 103.707032 351.894531 285.933594 382.410156-3.15625 2.277344-6.375 4.460938-9.652344 6.554688-4.519531-.382813-9.050781-.800782-13.523437-1.371094-3.414063-.4375-6.757813 1.226562-8.472656 4.210938-1.71875 2.984374-1.472657 6.707031.621093 9.441406-10.703124 5.421875-21.796874 10.03125-33.195312 13.789062-4.828125-.691406-9.632812-1.441406-14.386719-2.328125-2.226562-.417969-4.527343.066407-6.394531 1.347657s-3.148438 3.25-3.5625 5.476562c-.09375.707031-.09375 1.421875 0 2.125-70.566406 15.15625-144.199219-2.402344-200.328125-47.769531-56.132813-45.367188-88.742187-113.683594-88.722656-185.855469zm445.441406 119.960938c-3.492187-.664063-6.988281-1.296876-10.4375-2.0625-3-.742188-6.167969.199218-8.277344 2.457031-2.113281 2.257812-2.835937 5.484375-1.894531 8.425781.945312 2.945312 3.40625 5.148438 6.433594 5.765625 1.441406.324219 2.929687.5625 4.378906.851563-3.589844 5.195312-7.375 10.242187-11.359375 15.148437-3.90625-.566406-7.832031-1.109375-11.699219-1.8125-3-.53125-6.0625.578125-8.023437 2.910156-1.964844 2.335938-2.535157 5.539063-1.496094 8.40625 1.039063 2.867188 3.53125 4.960938 6.535156 5.496094l1.21875.1875c-4.710937 4.882813-9.621093 9.558594-14.738281 14.039063-89.371094-10.617188-170.480469-57.429688-224.386719-129.503907-53.902343-72.074219-75.886719-163.105469-60.8125-251.835937 5.324219-3.414063 10.785157-6.605469 16.382813-9.582032-.050782.476563-.136719.945313-.179688 1.425782-.238281 2.257812.433594 4.515625 1.867188 6.277344 1.429687 1.761718 3.503906 2.878906 5.761718 3.109374h.855469c4.378907-.003906 8.042969-3.324218 8.480469-7.679687.402344-4.011719.964844-7.972656 1.511719-11.949219 5.496093-2.335937 11.09375-4.417968 16.800781-6.347656-.101562 1.535156-.28125 3.054688-.359375 4.589844-.246094 4.707031 3.367187 8.722656 8.074219 8.96875h.453125c4.542969.007812 8.296875-3.550782 8.53125-8.089844.1875-3.601562.53125-7.167969.855469-10.742188 93.257812-23.859374 191.71875 10.609376 249.734374 87.421876 58.019532 76.8125 64.242188 180.949218 15.789063 264.125zm0 0"/><path d="m257.886719 315.785156c-3.390625-3.128906-8.652344-3-11.882813.292969-3.230468 3.292969-3.257812 8.554687-.066406 11.882813 8.132812 7.996093 16.777344 15.683593 25.695312 22.851562 3.671876 2.964844 9.054688 2.390625 12.019532-1.28125 2.964844-3.675781 2.390625-9.054688-1.285156-12.019531-8.53125-6.820313-16.742188-14.097657-24.480469-21.726563zm0 0"/><path d="m216.03125 265.652344c-2.648438-3.902344-7.953125-4.917969-11.855469-2.269532-3.898437 2.644532-4.914062 7.953126-2.269531 11.851563 6.402344 9.429687 13.371094 18.671875 20.703125 27.453125 1.921875 2.433594 5.015625 3.628906 8.078125 3.125 3.0625-.5 5.609375-2.628906 6.652344-5.550781 1.042968-2.921875.417968-6.179688-1.632813-8.507813-6.972656-8.351562-13.59375-17.132812-19.675781-26.101562zm0 0"/><path d="m153.308594 122.878906c2.253906-.214844 4.332031-1.316406 5.773437-3.066406 1.4375-1.746094 2.125-3.996094 1.90625-6.25-1.039062-10.683594-1.5625-21.574219-1.570312-32.675781-.003907-2.246094-.910157-4.398438-2.515625-5.976563-1.601563-1.574218-3.769532-2.441406-6.015625-2.410156-4.742188.070312-8.542969 3.9375-8.535157 8.675781 0 11.351563.554688 22.8125 1.65625 34.042969.4375 4.355469 4.101563 7.675781 8.480469 7.679688.257813-.019532.539063-.019532.820313-.019532zm0 0"/><path d="m184.890625 208.289062c-1.179687-2.8125-3.765625-4.78125-6.792969-5.167968-3.023437-.386719-6.023437.871094-7.871094 3.300781-1.847656 2.425781-2.257812 5.652344-1.078124 8.464844 4.410156 10.511719 9.386718 20.941406 14.871093 30.992187 1.457031 2.679688 4.230469 4.378906 7.277344 4.460938 3.046875.082031 5.90625-1.472656 7.5-4.070313 1.59375-2.597656 1.679687-5.851562.226563-8.53125-5.199219-9.574219-9.917969-19.402343-14.132813-29.449219zm0 0"/><path d="m173.765625 177.5625c-3.195313-10.425781-5.859375-21.003906-7.988281-31.695312-.597656-2.988282-2.742188-5.433594-5.632813-6.414063-2.886719-.980469-6.078125-.34375-8.371093 1.667969-2.289063 2.011718-3.335938 5.09375-2.738282 8.085937 2.242188 11.25 5.046875 22.382813 8.402344 33.355469 1.101562 3.585938 4.410156 6.03125 8.160156 6.03125.847656-.003906 1.6875-.128906 2.5-.375 2.164063-.660156 3.976563-2.15625 5.042969-4.152344 1.0625-2 1.285156-4.339844.625-6.503906zm0 0"/><path d="m336.980469 373.195312c-9.589844-4.992187-19.089844-10.527343-28.160157-16.5-3.953124-2.59375-9.257812-1.492187-11.847656 2.460938-2.59375 3.949219-1.492187 9.253906 2.460938 11.847656 9.582031 6.246094 19.574218 12.089844 29.703125 17.339844 4.171875 2.074219 9.234375.425781 11.378906-3.710938 2.144531-4.132812.578125-9.222656-3.519531-11.4375zm0 0"/><path d="m397.710938 397.347656c-10.425782-2.980468-20.84375-6.53125-30.949219-10.546875-2.835938-1.15625-6.078125-.703125-8.488281 1.191407-2.410157 1.890624-3.621094 4.929687-3.171876 7.960937.449219 3.03125 2.492188 5.589844 5.347657 6.699219 10.664062 4.242187 21.535156 7.941406 32.570312 11.09375.761719.222656 1.550781.335937 2.347657.332031 4.261718.011719 7.875-3.125 8.464843-7.347656.59375-4.21875-2.019531-8.230469-6.121093-9.394531zm0 0"/><path d="m281.34375 472.175781c-11.304688-3.441406-22.414062-7.488281-33.28125-12.125-4.320312-1.804687-9.292969.210938-11.132812 4.519531-1.839844 4.308594.132812 9.292969 4.425781 11.171876 11.4375 4.898437 23.128906 9.167968 35.03125 12.800781.804687.242187 1.640625.363281 2.480469.367187 4.230468 0 7.820312-3.101562 8.441406-7.285156s-1.917969-8.1875-5.964844-9.414062zm0 0"/><path d="m75.800781 289.347656c-4.75-10.839844-8.90625-21.929687-12.449219-33.21875-.914062-2.910156-3.3125-5.113281-6.289062-5.773437-2.980469-.664063-6.082031.3125-8.144531 2.558593-2.066407 2.246094-2.773438 5.425782-1.855469 8.332032 3.734375 11.890625 8.109375 23.570312 13.105469 34.988281 1.15625 2.886719 3.792969 4.917969 6.882812 5.296875 3.085938.378906 6.136719-.953125 7.957031-3.476562 1.820313-2.519532 2.125-5.835938.792969-8.648438zm0 0"/><path d="m54.578125 221.753906c-2.296875-11.601562-3.964844-23.320312-5-35.105468-.214844-3.078126-2.074219-5.800782-4.863281-7.121094-2.789063-1.316406-6.074219-1.03125-8.589844.757812-2.515625 1.785156-3.871094 4.789063-3.546875 7.859375 1.085937 12.390625 2.839844 24.71875 5.257813 36.921875.585937 2.996094 2.730468 5.449219 5.617187 6.433594 2.890625.988281 6.085937.355469 8.378906-1.65625 2.296875-2.011719 3.34375-5.09375 2.746094-8.089844zm0 0"/><path d="m216.285156 444.390625c-10.304687-5.804687-20.292968-12.148437-29.925781-19.011719-2.480469-1.773437-5.71875-2.085937-8.496094-.820312-2.773437 1.261718-4.664062 3.910156-4.957031 6.945312s1.054688 5.996094 3.535156 7.765625c10.128906 7.21875 20.632813 13.894531 31.472656 19.996094 4.105469 2.308594 9.3125.855469 11.621094-3.253906 2.3125-4.105469.855469-9.308594-3.25-11.621094zm0 0"/><path d="m133.445312 378.300781c-3.199218-3.339843-8.472656-3.523437-11.894531-.417969-3.425781 3.101563-3.753906 8.371094-.746093 11.878907 8.347656 9.210937 17.175781 17.972656 26.453124 26.246093 3.523438 3.136719 8.917969 2.820313 12.050782-.699218 3.132812-3.519532 2.820312-8.914063-.699219-12.046875-8.828125-7.867188-17.226563-16.199219-25.164063-24.960938zm0 0"/><path d="m91.777344 321.015625c-2.359375-4.085937-7.582032-5.488281-11.667969-3.132813-4.085937 2.355469-5.488281 7.578126-3.128906 11.667969 6.195312 10.789063 12.96875 21.234375 20.289062 31.296875 1.609375 2.214844 4.179688 3.519532 6.914063 3.515625 3.207031-.003906 6.144531-1.804687 7.597656-4.667969 1.453125-2.859374 1.179688-6.296874-.710938-8.890624-6.960937-9.578126-13.402343-19.519532-19.292968-29.789063zm0 0"/><path d="m146.832031 322.183594c-2.839843-3.585938-8-4.292969-11.703125-1.605469-3.699218 2.6875-4.625 7.8125-2.09375 11.625 6.90625 9.523437 14.289063 18.691406 22.125 27.46875 3.140625 3.515625 8.535156 3.820313 12.050782.683594 3.515624-3.140625 3.820312-8.535157.683593-12.050781-7.457031-8.347657-14.484375-17.066407-21.0625-26.121094zm0 0"/><path d="m125.449219 305.722656c1.957031-1.136718 3.382812-3.003906 3.964843-5.191406.578126-2.1875.269532-4.515625-.867187-6.472656-5.617187-9.6875-10.726563-19.65625-15.320313-29.867188-2.007812-4.167968-6.972656-5.976562-11.191406-4.078125-4.21875 1.902344-6.15625 6.816407-4.363281 11.085938 4.828125 10.734375 10.210937 21.210937 16.121094 31.394531 2.363281 4.070312 7.582031 5.457031 11.65625 3.097656zm0 0"/><path d="m81.960938 194.140625c-4.601563 1.015625-7.507813 5.570313-6.492188 10.171875 2.546875 11.5 5.679688 22.863281 9.386719 34.039062 1.15625 3.492188 4.421875 5.847657 8.097656 5.847657.914063 0 1.820313-.144531 2.6875-.4375 2.148437-.710938 3.929687-2.246094 4.945313-4.269531 1.015624-2.023438 1.1875-4.367188.472656-6.515626-3.523438-10.621093-6.5-21.414062-8.917969-32.339843-.484375-2.210938-1.832031-4.140625-3.742187-5.359375-1.910157-1.214844-4.226563-1.625-6.4375-1.136719zm0 0"/><path d="m78.097656 177.074219c.328125.003906.660156-.015625.988282-.058594 2.25-.257813 4.300781-1.402344 5.710937-3.175781 1.40625-1.769532 2.050781-4.03125 1.789063-6.277344-1.292969-11.113281-2.027344-22.285156-2.191407-33.46875-.121093-4.691406-3.960937-8.425781-8.652343-8.414062-2.265626.03125-4.421876.960937-6 2.582031-1.578126 1.625-2.445313 3.808593-2.414063 6.070312.164063 11.761719.921875 23.507813 2.269531 35.191407.5 4.3125 4.15625 7.5625 8.5 7.550781zm0 0"/><path d="m191.460938 372.164062c-2.25-2.058593-5.425782-2.757812-8.332032-1.839843-2.90625.921875-5.105468 3.320312-5.761718 6.296875-.65625 2.980468.324218 6.082031 2.574218 8.136718 8.683594 7.9375 17.769532 15.429688 27.214844 22.445313 1.460938 1.105469 3.242188 1.703125 5.074219 1.707031 3.675781 0 6.933593-2.351562 8.097656-5.835937 1.160156-3.484375-.039063-7.320313-2.976563-9.523438-8.984374-6.691406-17.625-13.828125-25.890624-21.386719zm0 0"/><path d="m267.671875 443.238281c2.773437 1.320313 6.039063 1.054688 8.558594-.703125 2.515625-1.757812 3.898437-4.730468 3.613281-7.789062-.285156-3.054688-2.1875-5.722656-4.984375-6.988282-10.140625-4.707031-20.027344-9.933593-29.628906-15.65625-4.050781-2.414062-9.289063-1.085937-11.703125 2.964844-2.414063 4.050782-1.085938 9.289063 2.964844 11.703125 10.109374 6.011719 20.515624 11.511719 31.179687 16.46875zm0 0"/><path d="m336.210938 466.433594c4.335937-.003906 7.980468-3.257813 8.476562-7.5625.492188-4.308594-2.324219-8.300782-6.546875-9.285156-10.882813-2.539063-21.628906-5.632813-32.195313-9.265626-2.898437-1.066406-6.148437-.480468-8.492187 1.527344-2.34375 2.007813-3.421875 5.128906-2.816406 8.15625s2.796875 5.492188 5.734375 6.445313c11.121094 3.832031 22.433594 7.09375 33.886718 9.769531.640626.144531 1.296876.21875 1.953126.214844zm0 0"/><path d="m190.933594 145.160156c3.308594 12.003906 7.265625 23.820313 11.859375 35.398438 1.289062 3.253906 4.4375 5.390625 7.9375 5.390625 2.828125 0 5.46875-1.402344 7.058593-3.742188 1.585938-2.339843 1.910157-5.3125.867188-7.9375-4.359375-11.003906-8.121094-22.230469-11.269531-33.640625-1.304688-4.476562-5.964844-7.078125-10.460938-5.839844-4.496093 1.238282-7.164062 5.855469-5.992187 10.371094zm0 0"/><path d="m191.394531 115.867188c2.503907.003906 4.886719-1.09375 6.511719-3 1.625-1.910157 2.332031-4.433594 1.925781-6.910157-1.886719-11.671875-3.148437-23.441406-3.777343-35.25-.25-4.710937-4.273438-8.332031-8.988282-8.082031-4.710937.25-8.328125 4.273438-8.082031 8.988281.660156 12.421875 1.984375 24.800781 3.96875 37.085938.671875 4.136719 4.25 7.175781 8.441406 7.167969zm0 0"/><path d="m249.464844 248.738281c3.898437-2.640625 4.921875-7.941406 2.285156-11.84375-6.625-9.792969-12.710938-19.9375-18.234375-30.386719-2.203125-4.167968-7.371094-5.761718-11.539063-3.558593-4.167968 2.203125-5.761718 7.367187-3.558593 11.535156 5.820312 11.003906 12.226562 21.6875 19.191406 32 1.269531 1.875 3.230469 3.171875 5.453125 3.601563 2.222656.425781 4.527344-.042969 6.402344-1.3125zm0 0"/><path d="m297.464844 290.988281c-8.558594-8.171875-16.675782-16.789062-24.3125-25.824219-1.949219-2.398437-5.039063-3.554687-8.082032-3.027343-3.042968.527343-5.566406 2.65625-6.59375 5.570312-1.023437 2.914063-.398437 6.15625 1.644532 8.472657 8.042968 9.503906 16.585937 18.570312 25.601562 27.15625 2.164063 2.304687 5.429688 3.222656 8.480469 2.386718 3.050781-.839844 5.386719-3.296875 6.070313-6.386718.683593-3.089844-.398438-6.300782-2.808594-8.347657zm0 0"/><path d="m417.6875 364.195312c-11.179688-3.835937-22.144531-8.277343-32.84375-13.296874-2.773438-1.394532-6.085938-1.175782-8.652344.578124-2.5625 1.75-3.972656 4.757813-3.679687 7.847657.292969 3.089843 2.242187 5.78125 5.085937 7.019531 11.261719 5.285156 22.796875 9.953125 34.5625 13.988281.886719.308594 1.824219.46875 2.765625.46875 4.167969 0 7.730469-3.019531 8.414063-7.132812s-1.703125-8.121094-5.652344-9.472657zm0 0"/><path d="m353.628906 334.121094c-10.101562-6.148438-19.863281-12.835938-29.242187-20.035156-3.742188-2.699219-8.953125-1.933594-11.761719 1.726562s-2.199219 8.890625 1.375 11.808594c9.855469 7.570312 20.109375 14.605468 30.71875 21.078125 4.019531 2.351562 9.183594 1.050781 11.605469-2.925781 2.421875-3.976563 1.207031-9.164063-2.730469-11.652344zm0 0"/><path d="m362.238281 119.414062c-9.9375 8.917969-14.394531 22.4375-11.707031 35.515626 2.375 15.132812 8.820312 29.335937 18.644531 41.089843 9.398438 12.097657 21.90625 21.414063 36.191407 26.949219 5.285156 1.953125 10.867187 2.984375 16.503906 3.054688 7.496094.15625 14.808594-2.300782 20.691406-6.945313 18.628906-15.011719 15.582031-48.640625-6.9375-76.605469s-54.75-38.074218-73.386719-23.058594zm60.074219 33.769532c17.359375 21.535156 18.953125 45.011718 9.523438 52.605468-6.324219 3.761719-14.089844 4.171876-20.777344 1.101563-11.285156-4.519531-21.160156-11.96875-28.605469-21.582031-7.808594-9.324219-12.984375-20.566406-14.992187-32.5625-1.578126-7.183594.472656-14.6875 5.488281-20.070313 2.886719-2.125 6.417969-3.203125 10-3.046875 15.871093 1.910156 30.179687 10.472656 39.363281 23.554688zm0 0"/><path d="m306.953125 115.328125c2.65625.5625 5.363281.847656 8.078125.851563 14.378906.886718 27.410156-8.425782 31.234375-22.3125 3.242187-15.667969-9.113281-31.515626-27.546875-35.328126-8.277344-1.8125-16.929688-.773437-24.542969 2.953126-7.484375 3.609374-12.917969 10.429687-14.761719 18.535156-1.527343 8.167968.75 16.589844 6.1875 22.875 5.511719 6.433594 13.035157 10.8125 21.351563 12.425781zm-10.828125-31.863281c.820312-3.007813 2.941406-5.496094 5.785156-6.785156 2.699219-1.304688 5.667969-1.964844 8.667969-1.925782 1.570313-.003906 3.136719.15625 4.675781.476563 9.0625 1.875 15.601563 8.824219 14.292969 15.15625-1.304687 6.332031-10.078125 10.109375-19.140625 8.242187-4.515625-.851562-8.621094-3.1875-11.664062-6.632812-2.101563-2.308594-3.0625-5.4375-2.617188-8.53125zm0 0"/></svg>